<svg width="32" height="32" viewBox="0 0 32 32" fill="none" xmlns="http://www.w3.org/2000/svg">
<circle cx="16" cy="16" r="16" fill="#F7F7F7"/>
<g clip-path="url(#clip0_305_1296)">
<path d="M10.6665 22.6665C10.6665 21.252 11.2284 19.8955 12.2286 18.8953C13.2288 17.8951 14.5853 17.3332 15.9998 17.3332C17.4143 17.3332 18.7709 17.8951 19.7711 18.8953C20.7713 19.8955 21.3332 21.252 21.3332 22.6665H19.9998C19.9998 21.6056 19.5784 20.5882 18.8283 19.8381C18.0781 19.0879 17.0607 18.6665 15.9998 18.6665C14.939 18.6665 13.9216 19.0879 13.1714 19.8381C12.4213 20.5882 11.9998 21.6056 11.9998 22.6665H10.6665ZM15.9998 16.6665C13.7898 16.6665 11.9998 14.8765 11.9998 12.6665C11.9998 10.4565 13.7898 8.6665 15.9998 8.6665C18.2098 8.6665 19.9998 10.4565 19.9998 12.6665C19.9998 14.8765 18.2098 16.6665 15.9998 16.6665ZM15.9998 15.3332C17.4732 15.3332 18.6665 14.1398 18.6665 12.6665C18.6665 11.1932 17.4732 9.99984 15.9998 9.99984C14.5265 9.99984 13.3332 11.1932 13.3332 12.6665C13.3332 14.1398 14.5265 15.3332 15.9998 15.3332Z" fill="#333333"/>
</g>
<defs>
<clipPath id="clip0_305_1296">
<rect width="16" height="16" fill="white" transform="translate(8 8)"/>
</clipPath>
</defs>
</svg>
